<?xml version="1.0" standalone="no"?>
<!DOCTYPE svg PUBLIC "-//W3C//DTD SVG 20010904//EN"
 "http://www.w3.org/TR/2001/REC-SVG-20010904/DTD/svg10.dtd">
<svg version="1.0" xmlns="http://www.w3.org/2000/svg"
 width="2073.000000pt" height="2073.000000pt" viewBox="0 0 2073.000000 2073.000000"
 preserveAspectRatio="xMidYMid meet">
<metadata>
Created by potrace 1.14, written by Peter Selinger 2001-2017
</metadata>
<g transform="translate(0.000000,2073.000000) scale(0.100000,-0.100000)"
fill="#000000" stroke="none">
<path d="M14610 20156 c-152 -43 -273 -161 -320 -315 -19 -61 -20 -97 -20
-1022 l0 -959 -3885 0 -3885 0 0 933 c0 1018 1 992 -58 1100 -63 117 -205 217
-330 232 -15 2 -136 4 -269 5 -134 1 -245 5 -248 10 -8 13 -916 13 -949 1 -14
-6 -108 -11 -209 -11 -162 -1 -191 -4 -250 -24 -115 -39 -217 -126 -270 -231
-47 -93 -47 -95 -47 -1084 l0 -931 -562 -1 c-310 0 -581 -2 -603 -3 -427 -31
-814 -141 -1175 -333 -104 -56 -242 -139 -290 -175 -227 -171 -252 -193 -399
-339 -96 -96 -143 -147 -193 -210 -23 -30 -40 -51 -76 -95 -5 -5 -14 -20 -21
-31 -6 -12 -17 -28 -23 -35 -24 -25 -58 -77 -58 -88 0 -5 -4 -10 -10 -10 -5 0
-10 -7 -10 -15 0 -8 -4 -15 -9 -15 -5 0 -13 -10 -17 -22 -4 -13 -10 -25 -14
-28 -7 -5 -22 -32 -61 -110 -13 -25 -27 -47 -31 -48 -5 -2 -6 -8 -2 -13 3 -5
0 -9 -6 -9 -6 0 -8 -4 -5 -10 3 -5 1 -10 -5 -10 -6 0 -8 -4 -5 -10 3 -5 1 -10
-4 -10 -6 0 -10 -3 -9 -7 1 -5 -9 -30 -22 -58 -13 -27 -24 -52 -25 -55 0 -3
-3 -10 -7 -16 -7 -10 -14 -30 -66 -174 -41 -116 -90 -287 -97 -342 -2 -15 -6
-35 -9 -45 -6 -22 -14 -63 -22 -123 -3 -25 -8 -53 -10 -63 -2 -10 -7 -55 -11
-100 -10 -106 -10 -12011 0 -12097 4 -36 10 -76 12 -90 3 -14 7 -41 10 -60 15
-98 39 -214 61 -296 27 -104 98 -313 120 -356 8 -15 14 -30 14 -33 -2 -24 183
-376 202 -383 4 -2 8 -8 8 -12 0 -21 168 -260 182 -260 4 0 8 -5 8 -11 0 -6 6
-16 12 -24 7 -7 33 -37 58 -66 64 -75 246 -256 305 -304 27 -22 57 -47 66 -55
33 -31 60 -50 68 -50 5 0 11 -7 15 -15 3 -8 10 -15 16 -15 6 0 23 -11 38 -25
15 -14 30 -25 35 -25 4 0 17 -9 29 -20 12 -11 28 -20 35 -20 7 0 13 -4 13 -10
0 -5 7 -10 15 -10 8 0 15 -3 15 -8 0 -4 21 -18 48 -32 26 -13 49 -27 52 -30 3
-3 19 -12 35 -20 17 -8 42 -23 57 -33 16 -10 28 -16 28 -13 0 4 17 -4 38 -17
20 -13 40 -25 44 -26 4 -1 25 -9 45 -18 21 -9 40 -17 43 -18 10 -3 66 -26 85
-35 46 -21 95 -39 95 -33 0 3 6 1 13 -4 11 -9 138 -51 180 -58 9 -2 21 -6 25
-9 5 -3 24 -8 43 -11 19 -3 59 -12 89 -20 30 -8 73 -16 95 -20 23 -3 51 -7 64
-10 13 -2 49 -7 80 -11 31 -3 65 -9 76 -13 31 -9 15430 -11 15515 -1 41 5 100
12 130 15 30 4 100 15 155 26 55 11 114 23 130 26 122 21 530 171 635 232 8 5
58 33 110 61 125 69 324 203 406 275 7 6 36 30 65 55 105 89 288 279 359 373
8 10 23 27 33 35 9 9 17 22 17 28 0 7 7 14 15 18 8 3 15 12 15 21 0 8 4 15 10
15 5 0 17 15 26 33 9 17 20 34 23 37 4 3 18 23 31 45 13 22 30 46 37 53 7 7
13 20 13 28 0 8 4 14 9 14 5 0 11 8 15 17 3 10 15 34 26 53 25 42 74 133 75
140 0 3 15 33 33 68 17 34 31 63 31 65 -1 1 6 19 15 41 9 21 16 44 16 50 0 7
5 17 11 23 6 6 12 17 13 24 2 8 6 21 9 29 16 40 59 186 81 275 35 143 37 152
51 245 4 30 9 64 11 75 2 11 7 56 11 100 10 105 10 11977 0 12075 -13 127 -17
155 -43 287 -14 70 -26 133 -28 138 -1 6 -8 30 -15 55 -26 96 -86 270 -128
370 -69 164 -200 405 -275 501 -15 20 -28 40 -28 43 0 3 -6 14 -14 23 -8 10
-43 54 -77 97 -123 157 -361 396 -464 466 -12 8 -29 22 -38 30 -33 31 -46 40
-57 40 -5 0 -10 4 -10 8 0 4 -15 16 -32 27 -18 10 -42 27 -52 37 -11 10 -26
18 -33 18 -7 0 -13 5 -13 10 0 6 -7 10 -15 10 -8 0 -15 4 -15 9 0 5 -10 13
-22 17 -13 4 -25 9 -28 13 -7 8 -55 36 -110 63 -25 13 -47 26 -48 31 -2 4 -8
5 -13 1 -5 -3 -9 0 -9 6 0 6 -4 8 -10 5 -5 -3 -10 -1 -10 4 0 6 -6 11 -13 11
-7 0 -38 13 -70 30 -31 16 -59 30 -62 30 -3 0 -22 7 -43 15 -46 20 -202 76
-222 80 -8 2 -16 4 -17 5 -2 2 -6 3 -10 4 -5 2 -28 8 -53 15 -53 15 -51 15
-160 40 -78 18 -113 25 -180 36 -80 13 -191 25 -270 30 -25 1 -291 3 -592 4
l-548 1 0 950 c0 664 -3 965 -11 1002 -25 117 -122 246 -225 300 -115 60 -72
58 -1078 57 -703 -1 -932 -4 -966 -13z"/>
</g>
</svg>
