<svg id="background" viewBox="0 0 540 960" width="540" height="960" xmlns="http://www.w3.org/2000/svg" xmlns:xlink="http://www.w3.org/1999/xlink" version="1.1">
<g stroke-width="0.1">
<path d="M306 525L388 549L375 476Z" fill="#95b3d7" stroke="#FFFFFF"></path>
<path d="M275 314L181 490L306 525Z" fill="#8fb0d3" stroke="#FFFFFF"></path>
<path d="M306 525L233 644L388 549Z" fill="#91b1d5" stroke="#FFFFFF"></path>
<path d="M181 490L233 644L306 525Z" fill="#90b1d4" stroke="#FFFFFF"></path>
<path d="M540 494L422 349L375 476Z" fill="#8fb0d4" stroke="#FFFFFF"></path>
<path d="M375 476L275 314L306 525Z" fill="#94b3d7" stroke="#FFFFFF"></path>
<path d="M540 587L540 494L388 549Z" fill="#91b1d5" stroke="#FFFFFF"></path>
<path d="M388 549L540 494L375 476Z" fill="#8fb0d3" stroke="#FFFFFF"></path>
<path d="M359 742L540 587L388 549Z" fill="#92b1d5" stroke="#FFFFFF"></path>
<path d="M422 349L275 314L375 476Z" fill="#92b1d5" stroke="#FFFFFF"></path>
<path d="M233 644L359 742L388 549Z" fill="#92b1d5" stroke="#FFFFFF"></path>
<path d="M181 490L154 650L233 644Z" fill="#8fb0d4" stroke="#FFFFFF"></path>
<path d="M233 644L279 764L359 742Z" fill="#8dafd2" stroke="#FFFFFF"></path>
<path d="M113 734L279 764L233 644Z" fill="#94b3d7" stroke="#FFFFFF"></path>
<path d="M540 307L399 259L422 349Z" fill="#94b3d7" stroke="#FFFFFF"></path>
<path d="M422 349L399 259L275 314Z" fill="#90b1d4" stroke="#FFFFFF"></path>
<path d="M376 809L540 728L359 742Z" fill="#95b3d7" stroke="#FFFFFF"></path>
<path d="M359 742L540 728L540 587Z" fill="#92b1d5" stroke="#FFFFFF"></path>
<path d="M540 494L540 307L422 349Z" fill="#8fb0d3" stroke="#FFFFFF"></path>
<path d="M279 764L376 809L359 742Z" fill="#8eafd3" stroke="#FFFFFF"></path>
<path d="M296 164L230 232L275 314Z" fill="#90b1d4" stroke="#FFFFFF"></path>
<path d="M275 314L85 337L181 490Z" fill="#93b2d6" stroke="#FFFFFF"></path>
<path d="M0 698L113 734L154 650Z" fill="#8eafd3" stroke="#FFFFFF"></path>
<path d="M154 650L113 734L233 644Z" fill="#90b1d4" stroke="#FFFFFF"></path>
<path d="M279 764L274 877L376 809Z" fill="#8fb0d3" stroke="#FFFFFF"></path>
<path d="M0 573L154 650L181 490Z" fill="#93b2d6" stroke="#FFFFFF"></path>
<path d="M230 232L85 337L275 314Z" fill="#91b1d5" stroke="#FFFFFF"></path>
<path d="M0 396L0 486L181 490Z" fill="#91b1d5" stroke="#FFFFFF"></path>
<path d="M0 486L0 573L181 490Z" fill="#92b1d5" stroke="#FFFFFF"></path>
<path d="M399 259L296 164L275 314Z" fill="#92b1d5" stroke="#FFFFFF"></path>
<path d="M230 232L123 220L85 337Z" fill="#92b1d5" stroke="#FFFFFF"></path>
<path d="M376 68L296 164L399 259Z" fill="#91b1d5" stroke="#FFFFFF"></path>
<path d="M540 307L540 211L399 259Z" fill="#94b3d7" stroke="#FFFFFF"></path>
<path d="M127 872L274 877L279 764Z" fill="#90b1d4" stroke="#FFFFFF"></path>
<path d="M376 809L540 851L540 728Z" fill="#91b1d5" stroke="#FFFFFF"></path>
<path d="M85 337L0 396L181 490Z" fill="#90b1d4" stroke="#FFFFFF"></path>
<path d="M0 193L0 396L85 337Z" fill="#93b2d6" stroke="#FFFFFF"></path>
<path d="M164 118L123 220L230 232Z" fill="#93b2d6" stroke="#FFFFFF"></path>
<path d="M416 960L540 851L376 809Z" fill="#8dafd2" stroke="#FFFFFF"></path>
<path d="M0 573L0 698L154 650Z" fill="#93b2d6" stroke="#FFFFFF"></path>
<path d="M113 734L127 872L279 764Z" fill="#95b3d7" stroke="#FFFFFF"></path>
<path d="M0 880L127 872L113 734Z" fill="#94b3d7" stroke="#FFFFFF"></path>
<path d="M320 0L164 118L296 164Z" fill="#8fb0d3" stroke="#FFFFFF"></path>
<path d="M296 164L164 118L230 232Z" fill="#92b1d5" stroke="#FFFFFF"></path>
<path d="M123 220L0 193L85 337Z" fill="#94b3d7" stroke="#FFFFFF"></path>
<path d="M251 960L416 960L274 877Z" fill="#92b1d5" stroke="#FFFFFF"></path>
<path d="M274 877L416 960L376 809Z" fill="#93b2d6" stroke="#FFFFFF"></path>
<path d="M540 211L376 68L399 259Z" fill="#91b1d5" stroke="#FFFFFF"></path>
<path d="M127 872L251 960L274 877Z" fill="#91b1d5" stroke="#FFFFFF"></path>
<path d="M0 95L0 193L123 220Z" fill="#94b3d7" stroke="#FFFFFF"></path>
<path d="M416 960L540 960L540 851Z" fill="#8dafd2" stroke="#FFFFFF"></path>
<path d="M540 211L540 72L376 68Z" fill="#92b1d5" stroke="#FFFFFF"></path>
<path d="M0 698L0 880L113 734Z" fill="#93b2d6" stroke="#FFFFFF"></path>
<path d="M127 872L89 960L251 960Z" fill="#8fb0d4" stroke="#FFFFFF"></path>
<path d="M0 880L89 960L127 872Z" fill="#93b2d6" stroke="#FFFFFF"></path>
<path d="M376 68L320 0L296 164Z" fill="#92b1d5" stroke="#FFFFFF"></path>
<path d="M164 118L0 95L123 220Z" fill="#94b3d7" stroke="#FFFFFF"></path>
<path d="M418 0L320 0L376 68Z" fill="#8fb0d3" stroke="#FFFFFF"></path>
<path d="M540 72L418 0L376 68Z" fill="#94b3d7" stroke="#FFFFFF"></path>
<path d="M148 0L0 95L164 118Z" fill="#8fb0d4" stroke="#FFFFFF"></path>
<path d="M540 72L540 0L418 0Z" fill="#8fb0d3" stroke="#FFFFFF"></path>
<path d="M320 0L148 0L164 118Z" fill="#95b3d7" stroke="#FFFFFF"></path>
<path d="M0 880L0 960L89 960Z" fill="#8dafd2" stroke="#FFFFFF"></path>
<path d="M148 0L0 0L0 95Z" fill="#8fb0d4" stroke="#FFFFFF"></path></g></svg>