<svg id="background_wide" viewBox="0 0 960 540" width="960" height="540" xmlns="http://www.w3.org/2000/svg" xmlns:xlink="http://www.w3.org/1999/xlink" version="1.1">
<g stroke-width="0.2" stroke-linejoin="bevel">
<path d="M495 350L529 415L584 359Z" fill="#8fb0d4" stroke="#FFFFFF"></path>
<path d="M529 415L600 407L584 359Z" fill="#95b3d7" stroke="#FFFFFF"></path>
<path d="M495 350L387 401L529 415Z" fill="#93b2d6" stroke="#FFFFFF"></path>
<path d="M713 358L607 213L584 359Z" fill="#93b2d6" stroke="#FFFFFF"></path>
<path d="M584 359L607 213L495 350Z" fill="#93b2d6" stroke="#FFFFFF"></path>
<path d="M495 350L362 255L387 401Z" fill="#90b1d4" stroke="#FFFFFF"></path>
<path d="M600 407L713 358L584 359Z" fill="#8dafd2" stroke="#FFFFFF"></path>
<path d="M387 401L496 540L529 415Z" fill="#8fb0d3" stroke="#FFFFFF"></path>
<path d="M529 415L649 540L600 407Z" fill="#91b1d5" stroke="#FFFFFF"></path>
<path d="M600 407L748 479L713 358Z" fill="#8dafd2" stroke="#FFFFFF"></path>
<path d="M607 213L472 176L495 350Z" fill="#8fb0d4" stroke="#FFFFFF"></path>
<path d="M496 540L649 540L529 415Z" fill="#8fb0d3" stroke="#FFFFFF"></path>
<path d="M472 176L362 255L495 350Z" fill="#94b3d7" stroke="#FFFFFF"></path>
<path d="M387 401L405 540L496 540Z" fill="#8eafd3" stroke="#FFFFFF"></path>
<path d="M239 465L405 540L387 401Z" fill="#95b3d7" stroke="#FFFFFF"></path>
<path d="M259 224L324 279L362 255Z" fill="#8fb0d3" stroke="#FFFFFF"></path>
<path d="M362 255L324 279L387 401Z" fill="#8dafd2" stroke="#FFFFFF"></path>
<path d="M649 540L748 479L600 407Z" fill="#91b1d5" stroke="#FFFFFF"></path>
<path d="M607 213L479 133L472 176Z" fill="#8fb0d4" stroke="#FFFFFF"></path>
<path d="M472 176L346 118L362 255Z" fill="#93b2d6" stroke="#FFFFFF"></path>
<path d="M795 375L754 248L713 358Z" fill="#8fb0d4" stroke="#FFFFFF"></path>
<path d="M713 358L754 248L607 213Z" fill="#8fb0d4" stroke="#FFFFFF"></path>
<path d="M607 213L648 63L479 133Z" fill="#91b1d5" stroke="#FFFFFF"></path>
<path d="M748 479L795 375L713 358Z" fill="#8fb0d3" stroke="#FFFFFF"></path>
<path d="M649 540L747 540L748 479Z" fill="#8eafd3" stroke="#FFFFFF"></path>
<path d="M748 479L849 480L795 375Z" fill="#92b1d5" stroke="#FFFFFF"></path>
<path d="M324 279L239 465L387 401Z" fill="#8dafd2" stroke="#FFFFFF"></path>
<path d="M346 118L259 224L362 255Z" fill="#92b1d5" stroke="#FFFFFF"></path>
<path d="M324 279L200 300L239 465Z" fill="#8fb0d4" stroke="#FFFFFF"></path>
<path d="M479 133L346 118L472 176Z" fill="#91b1d5" stroke="#FFFFFF"></path>
<path d="M828 197L716 104L754 248Z" fill="#92b1d5" stroke="#FFFFFF"></path>
<path d="M754 248L716 104L607 213Z" fill="#92b1d5" stroke="#FFFFFF"></path>
<path d="M479 133L431 0L346 118Z" fill="#93b2d6" stroke="#FFFFFF"></path>
<path d="M716 104L648 63L607 213Z" fill="#90b1d4" stroke="#FFFFFF"></path>
<path d="M836 540L849 480L748 479Z" fill="#91b1d5" stroke="#FFFFFF"></path>
<path d="M795 375L828 197L754 248Z" fill="#95b3d7" stroke="#FFFFFF"></path>
<path d="M960 289L828 197L795 375Z" fill="#8eafd3" stroke="#FFFFFF"></path>
<path d="M239 465L242 540L405 540Z" fill="#93b2d6" stroke="#FFFFFF"></path>
<path d="M747 540L836 540L748 479Z" fill="#8eafd3" stroke="#FFFFFF"></path>
<path d="M259 224L200 300L324 279Z" fill="#91b1d5" stroke="#FFFFFF"></path>
<path d="M239 465L123 540L242 540Z" fill="#8eafd3" stroke="#FFFFFF"></path>
<path d="M755 0L578 0L648 63Z" fill="#90b1d4" stroke="#FFFFFF"></path>
<path d="M648 63L578 0L479 133Z" fill="#90b1d4" stroke="#FFFFFF"></path>
<path d="M828 197L810 104L716 104Z" fill="#95b3d7" stroke="#FFFFFF"></path>
<path d="M716 104L755 0L648 63Z" fill="#93b2d6" stroke="#FFFFFF"></path>
<path d="M578 0L431 0L479 133Z" fill="#92b1d5" stroke="#FFFFFF"></path>
<path d="M188 111L137 253L259 224Z" fill="#8eafd3" stroke="#FFFFFF"></path>
<path d="M259 224L137 253L200 300Z" fill="#93b2d6" stroke="#FFFFFF"></path>
<path d="M188 111L259 224L346 118Z" fill="#93b2d6" stroke="#FFFFFF"></path>
<path d="M200 300L113 425L239 465Z" fill="#95b3d7" stroke="#FFFFFF"></path>
<path d="M431 0L342 0L346 118Z" fill="#8fb0d4" stroke="#FFFFFF"></path>
<path d="M960 540L960 383L849 480Z" fill="#8fb0d3" stroke="#FFFFFF"></path>
<path d="M849 480L960 383L795 375Z" fill="#8eafd3" stroke="#FFFFFF"></path>
<path d="M828 197L960 100L810 104Z" fill="#90b1d4" stroke="#FFFFFF"></path>
<path d="M810 104L755 0L716 104Z" fill="#95b3d7" stroke="#FFFFFF"></path>
<path d="M878 0L755 0L810 104Z" fill="#8fb0d3" stroke="#FFFFFF"></path>
<path d="M75 291L113 425L200 300Z" fill="#8fb0d3" stroke="#FFFFFF"></path>
<path d="M960 383L960 289L795 375Z" fill="#8dafd2" stroke="#FFFFFF"></path>
<path d="M292 0L188 111L346 118Z" fill="#8fb0d3" stroke="#FFFFFF"></path>
<path d="M960 289L960 248L828 197Z" fill="#8fb0d4" stroke="#FFFFFF"></path>
<path d="M342 0L292 0L346 118Z" fill="#95b3d7" stroke="#FFFFFF"></path>
<path d="M113 425L123 540L239 465Z" fill="#92b1d5" stroke="#FFFFFF"></path>
<path d="M836 540L960 540L849 480Z" fill="#91b1d5" stroke="#FFFFFF"></path>
<path d="M0 230L75 291L137 253Z" fill="#92b1d5" stroke="#FFFFFF"></path>
<path d="M137 253L75 291L200 300Z" fill="#91b1d5" stroke="#FFFFFF"></path>
<path d="M113 425L0 540L123 540Z" fill="#91b1d5" stroke="#FFFFFF"></path>
<path d="M960 248L960 100L828 197Z" fill="#94b3d7" stroke="#FFFFFF"></path>
<path d="M960 100L878 0L810 104Z" fill="#93b2d6" stroke="#FFFFFF"></path>
<path d="M122 0L96 101L188 111Z" fill="#8eafd3" stroke="#FFFFFF"></path>
<path d="M188 111L96 101L137 253Z" fill="#8dafd2" stroke="#FFFFFF"></path>
<path d="M0 282L0 408L75 291Z" fill="#8eafd3" stroke="#FFFFFF"></path>
<path d="M75 291L0 408L113 425Z" fill="#91b1d5" stroke="#FFFFFF"></path>
<path d="M0 230L0 282L75 291Z" fill="#94b3d7" stroke="#FFFFFF"></path>
<path d="M96 101L0 230L137 253Z" fill="#95b3d7" stroke="#FFFFFF"></path>
<path d="M292 0L122 0L188 111Z" fill="#95b3d7" stroke="#FFFFFF"></path>
<path d="M96 101L0 143L0 230Z" fill="#95b3d7" stroke="#FFFFFF"></path>
<path d="M960 100L960 0L878 0Z" fill="#94b3d7" stroke="#FFFFFF"></path>
<path d="M0 408L0 540L113 425Z" fill="#8fb0d3" stroke="#FFFFFF"></path>
<path d="M0 0L0 143L96 101Z" fill="#8dafd2" stroke="#FFFFFF"></path>
<path d="M122 0L0 0L96 101Z" fill="#93b2d6" stroke="#FFFFFF"></path>
</g>
</svg>