<svg width="2073" height="1996" xmlns="http://www.w3.org/2000/svg" xmlns:xlink="http://www.w3.org/1999/xlink" overflow="hidden"><defs><clipPath id="clip0"><rect x="1024" y="158" width="2073" height="1996"/></clipPath></defs><g clip-path="url(#clip0)" transform="translate(-1024 -158)"><path d="M1354.05 816.86C1242.97 816.86 1152.93 906.892 1152.93 1017.95L1152.93 1822.29C1152.93 1933.35 1242.97 2023.38 1354.05 2023.38L2784.17 2023.38C2895.24 2023.38 2985.29 1933.35 2985.29 1822.29L2985.29 1017.95C2985.29 906.892 2895.24 816.86 2784.17 816.86ZM1312.21 425 1413.19 425 1413.19 579.113C1413.19 602.844 1432.43 622.081 1456.16 622.081L1628.05 622.081C1651.79 622.081 1671.02 602.844 1671.02 579.113L1671.02 425 2452.33 425 2452.33 579.681C2452.33 603.412 2471.57 622.649 2495.31 622.649L2667.2 622.649C2690.93 622.649 2710.17 603.412 2710.17 579.681L2710.17 425 2808.79 425C2967.96 425 3097 554.019 3097 713.172L3097 1865.83C3097 2024.98 2967.96 2154 2808.79 2154L1312.21 2154C1153.04 2154 1024 2024.98 1024 1865.83L1024 713.172C1024 554.019 1153.04 425 1312.21 425Z" fill="#1C3258" fill-rule="evenodd"/><path d="M2529 178.667C2529 167.253 2538.25 158 2549.67 158L2632.33 158C2643.75 158 2653 167.253 2653 178.667L2653 522.333C2653 533.747 2643.75 543 2632.33 543L2549.67 543C2538.25 543 2529 533.747 2529 522.333Z" fill="#1C3258" fill-rule="evenodd"/><path d="M1472 178.501C1472 167.179 1481.18 158 1492.5 158L1574.5 158C1585.82 158 1595 167.179 1595 178.501L1595 522.5C1595 533.822 1585.82 543 1574.5 543L1492.5 543C1481.18 543 1472 533.822 1472 522.5Z" fill="#1C3258" fill-rule="evenodd"/><path d="M1153 1021.5C1153 907.455 1245.45 815 1359.5 815L2776.5 815C2890.55 815 2983 907.455 2983 1021.5L2983 1847.5C2983 1961.55 2890.55 2054 2776.5 2054L1359.5 2054C1245.45 2054 1153 1961.55 1153 1847.5Z" fill="#F8F8F8" fill-rule="evenodd"/><path d="M1385 942.834C1385 921.387 1402.39 904 1423.83 904L1635.17 904C1656.61 904 1674 921.387 1674 942.834L1674 1098.17C1674 1119.61 1656.61 1137 1635.17 1137L1423.83 1137C1402.39 1137 1385 1119.61 1385 1098.17Z" fill="#1C3258" fill-rule="evenodd"/><path d="M1383 1326C1383 1304.46 1400.46 1287 1422 1287L1633 1287C1654.54 1287 1672 1304.46 1672 1326L1672 1482C1672 1503.54 1654.54 1521 1633 1521L1422 1521C1400.46 1521 1383 1503.54 1383 1482Z" fill="#1C3258" fill-rule="evenodd"/><path d="M1916 942.834C1916 921.387 1933.39 904 1954.83 904L2166.17 904C2187.61 904 2205 921.387 2205 942.834L2205 1098.17C2205 1119.61 2187.61 1137 2166.17 1137L1954.83 1137C1933.39 1137 1916 1119.61 1916 1098.17Z" fill="#1C3258" fill-rule="evenodd"/><path d="M2447 942.834C2447 921.387 2464.39 904 2485.83 904L2697.17 904C2718.61 904 2736 921.387 2736 942.834L2736 1098.17C2736 1119.61 2718.61 1137 2697.17 1137L2485.83 1137C2464.39 1137 2447 1119.61 2447 1098.17Z" fill="#1C3258" fill-rule="evenodd"/><path d="M1383 1710C1383 1688.46 1400.46 1671 1422 1671L1633 1671C1654.54 1671 1672 1688.46 1672 1710L1672 1866C1672 1887.54 1654.54 1905 1633 1905L1422 1905C1400.46 1905 1383 1887.54 1383 1866Z" fill="#1C3258" fill-rule="evenodd"/><path d="M1916 1710C1916 1688.46 1933.46 1671 1955 1671L2166 1671C2187.54 1671 2205 1688.46 2205 1710L2205 1866C2205 1887.54 2187.54 1905 2166 1905L1955 1905C1933.46 1905 1916 1887.54 1916 1866Z" fill="#1C3258" fill-rule="evenodd"/><path d="M2447 1710C2447 1688.46 2464.46 1671 2486 1671L2697 1671C2718.54 1671 2736 1688.46 2736 1710L2736 1866C2736 1887.54 2718.54 1905 2697 1905L2486 1905C2464.46 1905 2447 1887.54 2447 1866Z" fill="#1C3258" fill-rule="evenodd"/><path d="M1916 1328.83C1916 1307.39 1933.39 1290 1954.83 1290L2166.17 1290C2187.61 1290 2205 1307.39 2205 1328.83L2205 1484.17C2205 1505.61 2187.61 1523 2166.17 1523L1954.83 1523C1933.39 1523 1916 1505.61 1916 1484.17Z" fill="#1C3258" fill-rule="evenodd"/><path d="M2447 1326C2447 1304.46 2464.46 1287 2486 1287L2697 1287C2718.54 1287 2736 1304.46 2736 1326L2736 1482C2736 1503.54 2718.54 1521 2697 1521L2486 1521C2464.46 1521 2447 1503.54 2447 1482Z" fill="#1C3258" fill-rule="evenodd"/></g></svg>