<svg width="219" height="277" viewBox="0 0 219 277" fill="none" xmlns="http://www.w3.org/2000/svg">
<rect width="219" height="277" rx="20" fill="#1C3258"/>
<rect x="18" y="20" width="183" height="237" rx="20" fill="#D7E0EF"/>
<rect x="71" y="110" width="114" height="17.004" rx="8.50202" fill="#1C3258"/>
<rect x="71" y="200.688" width="114" height="17.004" rx="8.50202" fill="#1C3258"/>
<rect x="71" y="155.344" width="114" height="17.004" rx="8.50202" fill="#1C3258"/>
<rect x="71" y="65" width="114" height="17.004" rx="8.50202" fill="#1C3258"/>
<rect x="34.2892" y="206.643" width="15.6477" height="4.84122" rx="2.42061" transform="rotate(42.7972 34.2892 206.643)" fill="#1C3258"/>
<rect x="56.58" y="199.85" width="24.6802" height="4.84" rx="2.42" transform="rotate(122.924 56.58 199.85)" fill="#1C3258"/>
<rect x="34.2892" y="161.424" width="15.6477" height="4.84122" rx="2.42061" transform="rotate(42.7972 34.2892 161.424)" fill="#1C3258"/>
<rect x="56.58" y="154.631" width="24.6802" height="4.84" rx="2.42" transform="rotate(122.924 56.58 154.631)" fill="#1C3258"/>
<rect x="34.2892" y="116.424" width="15.6477" height="4.84122" rx="2.42061" transform="rotate(42.7972 34.2892 116.424)" fill="#1C3258"/>
<rect x="56.58" y="109.631" width="24.6802" height="4.84" rx="2.42" transform="rotate(122.924 56.58 109.631)" fill="#1C3258"/>
<rect x="34.2892" y="71.4238" width="15.6477" height="4.84122" rx="2.42061" transform="rotate(42.7972 34.2892 71.4238)" fill="#1C3258"/>
<rect x="56.58" y="64.6307" width="24.6802" height="4.84" rx="2.42" transform="rotate(122.924 56.58 64.6307)" fill="#1C3258"/>
</svg>
