<svg width="81" height="146" viewBox="0 0 81 146" fill="none" xmlns="http://www.w3.org/2000/svg">
<rect x="50.2693" y="3.7706" width="29.615" height="106.11" transform="rotate(19.0093 50.2693 3.7706)" fill="#1C3258" stroke="black"/>
<path d="M18.8444 134.925L14.0146 107.644C13.8138 106.51 14.9135 105.582 15.9979 105.97L41.892 115.255C42.9763 115.643 43.2359 117.059 42.3601 117.807L21.2958 135.804C20.4138 136.558 19.0467 136.068 18.8444 134.925Z" fill="#D9D9D9" stroke="black"/>
<path d="M78.7525 13.3503C78.7391 13.3873 78.6912 13.4686 78.4991 13.558C78.3054 13.6481 78.013 13.7223 77.6086 13.7634C76.8024 13.8453 75.6663 13.7849 74.2673 13.5785C71.4776 13.1667 67.7472 12.1901 63.7444 10.7408C59.7415 9.29158 56.2506 7.65368 53.8439 6.18401C52.637 5.44698 51.7256 4.76602 51.1587 4.18696C50.8744 3.89653 50.6972 3.6523 50.6061 3.4591C50.5158 3.26744 50.531 3.17433 50.5444 3.13736C50.5578 3.10039 50.6057 3.01908 50.7978 2.9297C50.9915 2.83959 51.2839 2.76538 51.6883 2.72431C52.4945 2.64241 53.6306 2.70272 55.0296 2.90921C57.8193 3.32094 61.5497 4.29756 65.5525 5.74683C69.5554 7.19609 73.0463 8.83399 75.453 10.3037C76.6599 11.0407 77.5713 11.7216 78.1382 12.3007C78.4225 12.5911 78.5997 12.8354 78.6908 13.0286C78.7811 13.2202 78.7659 13.3133 78.7525 13.3503Z" fill="#D9D9D9" stroke="black"/>
<path d="M21.4161 136.033C20.351 136.638 18.9967 136.152 18.5593 135.008L18.2267 134.138C17.6164 132.541 19.161 130.964 20.7701 131.541L21.9125 131.951C23.5216 132.528 23.7119 134.727 22.2259 135.572L21.4161 136.033Z" fill="black"/>
<path d="M20.3778 134.96L17.9673 130.346L25.1715 132.93L20.3778 134.96Z" fill="black"/>
</svg>
