<svg width="402" height="403" xmlns="http://www.w3.org/2000/svg" xmlns:xlink="http://www.w3.org/1999/xlink" overflow="hidden"><defs><clipPath id="clip0"><rect x="2225" y="239" width="402" height="403"/></clipPath></defs><g clip-path="url(#clip0)" transform="translate(-2225 -239)"><path d="M2380 254.334C2380 245.865 2386.87 239 2395.33 239L2456.67 239C2465.13 239 2472 245.865 2472 254.334L2472 626.666C2472 635.135 2465.13 642 2456.67 642L2395.33 642C2386.87 642 2380 635.135 2380 626.666Z" fill="#1C3258" fill-rule="evenodd"/><path d="M2611.5 394C2620.06 394 2627 400.94 2627 409.5L2627 471.5C2627 480.06 2620.06 487 2611.5 487L2240.5 487C2231.94 487 2225 480.06 2225 471.5L2225 409.5C2225 400.94 2231.94 394 2240.5 394Z" fill="#1C3258" fill-rule="evenodd"/></g></svg>