<svg width="2073" height="1996" xmlns="http://www.w3.org/2000/svg" xmlns:xlink="http://www.w3.org/1999/xlink" overflow="hidden"><defs><clipPath id="clip0"><rect x="1024" y="158" width="2073" height="1996"/></clipPath></defs><g clip-path="url(#clip0)" transform="translate(-1024 -158)"><path d="M1354.05 816.86C1242.97 816.86 1152.93 906.892 1152.93 1017.95L1152.93 1822.29C1152.93 1933.35 1242.97 2023.38 1354.05 2023.38L2784.17 2023.38C2895.24 2023.38 2985.29 1933.35 2985.29 1822.29L2985.29 1017.95C2985.29 906.892 2895.24 816.86 2784.17 816.86ZM1312.21 425 1413.19 425 1413.19 579.113C1413.19 602.844 1432.43 622.081 1456.16 622.081L1628.05 622.081C1651.79 622.081 1671.02 602.844 1671.02 579.113L1671.02 425 2452.33 425 2452.33 579.681C2452.33 603.412 2471.57 622.649 2495.31 622.649L2667.2 622.649C2690.93 622.649 2710.17 603.412 2710.17 579.681L2710.17 425 2808.79 425C2967.96 425 3097 554.019 3097 713.172L3097 1865.83C3097 2024.98 2967.96 2154 2808.79 2154L1312.21 2154C1153.04 2154 1024 2024.98 1024 1865.83L1024 713.172C1024 554.019 1153.04 425 1312.21 425Z" fill="#1C3258" fill-rule="evenodd"/><path d="M2529 178.667C2529 167.253 2538.25 158 2549.67 158L2632.33 158C2643.75 158 2653 167.253 2653 178.667L2653 522.333C2653 533.747 2643.75 543 2632.33 543L2549.67 543C2538.25 543 2529 533.747 2529 522.333Z" fill="#1C3258" fill-rule="evenodd"/><path d="M1472 178.501C1472 167.179 1481.18 158 1492.5 158L1574.5 158C1585.82 158 1595 167.179 1595 178.501L1595 522.5C1595 533.822 1585.82 543 1574.5 543L1492.5 543C1481.18 543 1472 533.822 1472 522.5Z" fill="#1C3258" fill-rule="evenodd"/><path d="M1153 1016.67C1153 902.53 1245.53 810 1359.67 810L2776.33 810C2890.47 810 2983 902.53 2983 1016.67L2983 1843.33C2983 1957.47 2890.47 2050 2776.33 2050L1359.67 2050C1245.53 2050 1153 1957.47 1153 1843.33Z" fill="#F8F8F8" fill-rule="evenodd"/><path d="M1714.98 1226.44 2001.23 1484.33 1889.52 1608.32 1603.27 1350.44Z" fill="#1C3258" fill-rule="evenodd"/><path d="M2527.19 1148.72 2009.05 1717.73 1885.66 1605.37 2403.79 1036.36Z" fill="#1C3258" fill-rule="evenodd"/></g></svg>