<svg width="2073" height="1996" xmlns="http://www.w3.org/2000/svg" xmlns:xlink="http://www.w3.org/1999/xlink" overflow="hidden"><defs><clipPath id="clip0"><rect x="1024" y="147" width="2073" height="1996"/></clipPath></defs><g clip-path="url(#clip0)" transform="translate(-1024 -147)"><path d="M1354.05 805.86C1242.97 805.86 1152.93 895.892 1152.93 1006.95L1152.93 1811.29C1152.93 1922.35 1242.97 2012.38 1354.05 2012.38L2784.17 2012.38C2895.24 2012.38 2985.29 1922.35 2985.29 1811.29L2985.29 1006.95C2985.29 895.892 2895.24 805.86 2784.17 805.86ZM1312.21 414 1413.19 414 1413.19 568.113C1413.19 591.844 1432.43 611.081 1456.16 611.081L1628.05 611.081C1651.79 611.081 1671.02 591.844 1671.02 568.113L1671.02 414 2452.33 414 2452.33 568.681C2452.33 592.412 2471.57 611.649 2495.31 611.649L2667.2 611.649C2690.93 611.649 2710.17 592.412 2710.17 568.681L2710.17 414 2808.79 414C2967.96 414 3097 543.019 3097 702.172L3097 1854.83C3097 2013.98 2967.96 2143 2808.79 2143L1312.21 2143C1153.04 2143 1024 2013.98 1024 1854.83L1024 702.172C1024 543.019 1153.04 414 1312.21 414Z" fill="#1C3258" fill-rule="evenodd"/><path d="M2529 167.667C2529 156.253 2538.25 147 2549.67 147L2632.33 147C2643.75 147 2653 156.253 2653 167.667L2653 511.333C2653 522.747 2643.75 532 2632.33 532L2549.67 532C2538.25 532 2529 522.747 2529 511.333Z" fill="#1C3258" fill-rule="evenodd"/><path d="M1472 167.501C1472 156.179 1481.18 147 1492.5 147L1574.5 147C1585.82 147 1595 156.179 1595 167.501L1595 511.5C1595 522.822 1585.82 532 1574.5 532L1492.5 532C1481.18 532 1472 522.822 1472 511.5Z" fill="#1C3258" fill-rule="evenodd"/><path d="M1148 1016.67C1148 902.529 1240.53 810 1354.67 810L2772.33 810C2886.47 810 2979 902.529 2979 1016.67L2979 1843.33C2979 1957.47 2886.47 2050 2772.33 2050L1354.67 2050C1240.53 2050 1148 1957.47 1148 1843.33Z" fill="#F8F8F8" fill-rule="evenodd"/><path d="M1385 931.001C1385 909.461 1402.46 892 1424 892L1635 892C1656.54 892 1674 909.461 1674 931.001L1674 1087C1674 1108.54 1656.54 1126 1635 1126L1424 1126C1402.46 1126 1385 1108.54 1385 1087Z" fill="#1C3258" fill-rule="evenodd"/><path d="M1916 931.001C1916 909.461 1933.46 892 1955 892L2166 892C2187.54 892 2205 909.461 2205 931.001L2205 1087C2205 1108.54 2187.54 1126 2166 1126L1955 1126C1933.46 1126 1916 1108.54 1916 1087Z" fill="#1C3258" fill-rule="evenodd"/><path d="M2447 931.001C2447 909.461 2464.46 892 2486 892L2697 892C2718.54 892 2736 909.461 2736 931.001L2736 1087C2736 1108.54 2718.54 1126 2697 1126L2486 1126C2464.46 1126 2447 1108.54 2447 1087Z" fill="#1C3258" fill-rule="evenodd"/></g></svg>